<svg width="48" height="48" viewBox="0 0 48 48" fill="none" xmlns="http://www.w3.org/2000/svg">
<path d="M14.8305 2C7.75615 2 2 7.75955 2 14.8357V33.1678C2 40.243 7.75955 46 14.8357 46H33.1678C40.243 46 46 40.2405 46 33.1644V14.8305C46 7.75615 40.2405 2 33.1644 2H14.8305ZM37.2 9.04C38.1715 9.04 38.96 9.82848 38.96 10.8C38.96 11.7715 38.1715 12.56 37.2 12.56C36.2285 12.56 35.44 11.7715 35.44 10.8C35.44 9.82848 36.2285 9.04 37.2 9.04ZM24 12.56C30.3096 12.56 35.44 17.6904 35.44 24C35.44 30.3096 30.3087 35.44 24 35.44C17.6904 35.44 12.56 30.3087 12.56 24C12.56 17.6913 17.6904 12.56 24 12.56ZM24 16.08C19.6255 16.08 16.08 19.6255 16.08 24C16.08 28.3745 19.6255 31.92 24 31.92C28.3745 31.92 31.92 28.3745 31.92 24C31.92 19.6255 28.3745 16.08 24 16.08Z" fill="#252525"/>
</svg>
