<svg width="48" height="48" viewBox="0 0 48 48" fill="none" xmlns="http://www.w3.org/2000/svg">
<path d="M24 2C11.8694 2 2 11.8694 2 24C2 36.1306 11.8694 46 24 46C36.1316 46 46 36.1306 46 24C46 11.8694 36.1316 2 24 2ZM33.5394 28.3378C35.6791 30.2375 36.1239 30.9157 36.1966 31.0314C37.0833 32.4375 35.2133 32.6087 35.2133 32.6087H31.2724C31.2724 32.6087 30.313 32.6192 29.4933 32.0759C28.157 31.2007 26.7577 29.5038 25.7743 29.7984C24.9489 30.0452 24.9565 31.1605 24.9565 32.1142C24.9565 32.4557 24.6629 32.6087 24 32.6087C23.3371 32.6087 23.0617 32.6087 22.768 32.6087C20.6091 32.6087 18.2666 31.8817 15.9298 29.4397C12.6241 25.9877 9.72487 19.0337 9.72487 19.0337C9.72487 19.0337 9.55365 18.6837 9.74017 18.4703C9.95157 18.2312 10.5264 18.2618 10.5264 18.2618L14.3477 18.2609C14.3477 18.2609 14.7074 18.3288 14.9657 18.5105C15.179 18.6597 15.2976 18.9448 15.2976 18.9448C15.2976 18.9448 15.9394 21.0644 16.7572 22.416C18.3546 25.0541 19.0978 25.121 19.6402 24.837C20.4322 24.4257 20.1739 21.6211 20.1739 21.6211C20.1739 21.6211 20.2093 20.4169 19.7961 19.8803C19.4776 19.4651 18.8683 19.2442 18.6023 19.2097C18.3871 19.182 18.7468 18.8051 19.205 18.5899C19.8171 18.3173 20.6503 18.2475 22.087 18.2609C23.2051 18.2714 23.5275 18.3383 23.9637 18.4388C25.2827 18.743 24.9565 19.5455 24.9565 22.3634C24.9565 23.2663 24.8322 24.5357 25.5132 24.9565C25.8069 25.1383 26.8131 25.3602 28.6037 22.4523C29.4541 21.073 30.1303 18.785 30.1303 18.785C30.1303 18.785 30.27 18.5335 30.4871 18.4091C30.709 18.2819 30.7023 18.2848 31.0065 18.2848C31.3107 18.2848 34.361 18.2609 35.0306 18.2609C35.6992 18.2609 36.3267 18.2532 36.4348 18.6454C36.5897 19.2088 35.9412 21.139 34.2979 23.2338C31.5977 26.6716 31.2983 26.3502 33.5394 28.3378Z" fill="#252525"/>
</svg>
